<svg xmlns="http://www.w3.org/2000/svg" viewBox="0 0 64 64"><path d="M30 35h4a1 1 0 001-1v-4a1 1 0 00-1-1h-4a1 1 0 00-1 1v4a1 1 0 001 1zm1-4h2v2h-2v-2z"/><path d="M41 29v-2h-2v-1a1 1 0 00-1-1h-1v-2h-2v2h-2v-2h-2v2h-2v-2h-2v2h-1a1 1 0 00-1 1v1h-2v2h2v2h-2v2h2v2h-2v2h2v1a1 1 0 001 1h1v2h2v-2h2v2h2v-2h2v2h2v-2h1a1 1 0 001-1v-1h2v-2h-2v-2h2v-2h-2v-2h2zm-4 8H27V27h10v10z"/><path d="M40.366 45.5l7.5-13c.178-.31.178-.69 0-1l-7.5-13a1 1 0 00-.866-.5h-15a.998.998 0 00-.866.5l-7.5 13c-.178.31-.178.69 0 1l7.5 13a1 1 0 00.866.5h15a1 1 0 00.866-.5zM25.078 44l-6.923-12 6.923-12h13.845l6.923 12-6.923 12H25.078zM6.628 19.49c.178.315.511.51.872.51h9c.361 0 .694-.195.872-.51l4.5-8a1 1 0 000-.98l-4.5-8A1.002 1.002 0 0016.5 2h-9c-.361 0-.694.195-.872.51l-4.5 8a1 1 0 000 .98l4.5 8zM8.085 4h7.83l3.938 7-3.938 7h-7.83l-3.938-7 3.938-7zM18.874 42.515A.999.999 0 0018 42H8a.999.999 0 00-.874.515l-5 9a.998.998 0 000 .971l5 9A1 1 0 008 62h10a.999.999 0 00.874-.515l5-9a.998.998 0 000-.971l-5-8.999zM17.412 60H15v-2.697L16.535 55H18v-2h-2c-.334 0-.646.167-.832.445l-2 3A1.006 1.006 0 0013 57v3h-2v-7a1 1 0 00-1-1H7v2h2v6h-.412l-4.444-8L8 45.059V49a1 1 0 001 1h3.184A2.996 2.996 0 0015 52c1.654 0 3-1.346 3-3s-1.346-3-3-3a2.996 2.996 0 00-2.816 2H10v-4h7.412l4.444 8-4.444 8zM14 49a1.001 1.001 0 111 1c-.551 0-1-.448-1-1zM61.864 20.496l-3.5-6A1 1 0 0057.5 14h-7a1 1 0 00-.864.496l-3.5 6a.999.999 0 000 1.008l3.5 6A1 1 0 0050.5 28h7a1 1 0 00.864-.496l3.5-6a1.003 1.003 0 000-1.008zm-3.584 3.182l-.331-.994A1 1 0 0057 22h-2v2h1.279l.659 1.978-.012.022h-5.852l-2.917-5L50 17.842V19a1 1 0 001 1h2v-2h-1v-2h4.926l2.917 5-1.563 2.678zM34.652 12.53a1 1 0 00.848.47h5a1 1 0 00.848-.47l2.5-4a1 1 0 000-1.061l-2.5-4A1.002 1.002 0 0040.5 3h-5a1 1 0 00-.848.47l-2.5 4a1 1 0 000 1.061l2.5 3.999zM36.054 5h3.892l1.875 3-1.875 3h-3.892l-1.875-3 1.875-3zM55.348 49.47A1 1 0 0054.5 49h-5a1 1 0 00-.848.47l-2.5 4a1 1 0 000 1.061l2.5 4c.183.291.503.469.848.469h5a1 1 0 00.848-.47l2.5-4a1 1 0 000-1.061l-2.5-3.999zM53.946 57h-3.892l-1.875-3 1.875-3h3.892l1.875 3-1.875 3zM11.5 30h-5a1 1 0 00-.848.47l-2.5 4a1 1 0 000 1.061l2.5 4c.183.291.503.469.848.469h5a1 1 0 00.848-.47l2.5-4a1 1 0 000-1.061l-2.5-4A1.002 1.002 0 0011.5 30zm-.554 8H7.054l-1.875-3 1.875-3h3.892l1.875 3-1.875 3z"/><path d="M55 18h2v2h-2zM51 22h2v2h-2zM9 15v2h2v-2h2v2h2v-2a1 1 0 001-1h2v-2h-2v-2h2V8h-2a1 1 0 00-1-1V5h-2v2h-2V5H9v2a1 1 0 00-1 1H6v2h2v2H6v2h2a1 1 0 001 1zm1-6h4v4h-4V9zM46.12 39.24L41.403 48H38v2h4a.999.999 0 00.88-.526l5-9.286-1.76-.948zM34 48h2v2h-2zM30 48h2v2h-2zM26 48h2v2h-2z"/></svg>