<svg xmlns="http://www.w3.org/2000/svg" viewBox="0 0 64 64" width="24" height="24"><path d="M50 11H14c-1.654 0-3 1.346-3 3v36c0 1.654 1.346 3 3 3h36c1.654 0 3-1.346 3-3V14c0-1.654-1.346-3-3-3zm1 39c0 .552-.449 1-1 1H14c-.551 0-1-.448-1-1V14c0-.552.449-1 1-1h36c.551 0 1 .448 1 1v36z"/><path d="M62 13v-2h-5v-1c0-1.654-1.346-3-3-3h-1V2h-2v5h-2V2h-2v5h-2V2h-2v5h-2V2h-2v5h-2V2h-2v5h-2V2h-2v5h-2V2h-2v5h-2V2h-2v5h-2V2h-2v5h-2V2h-2v5h-2V2h-2v5h-1c-1.654 0-3 1.346-3 3v1H2v2h5v2H2v2h5v2H2v2h5v2H2v2h5v2H2v2h5v2H2v2h5v2H2v2h5v2H2v2h5v2H2v2h5v2H2v2h5v2H2v2h5v1c0 1.654 1.346 3 3 3h1v5h2v-5h2v5h2v-5h2v5h2v-5h2v5h2v-5h2v5h2v-5h2v5h2v-5h2v5h2v-5h2v5h2v-5h2v5h2v-5h2v5h2v-5h2v5h2v-5h1c1.654 0 3-1.346 3-3v-1h5v-2h-5v-2h5v-2h-5v-2h5v-2h-5v-2h5v-2h-5v-2h5v-2h-5v-2h5v-2h-5v-2h5v-2h-5v-2h5v-2h-5v-2h5v-2h-5v-2h5v-2h-5v-2h5zm-7 41c0 .552-.449 1-1 1H10c-.551 0-1-.448-1-1V10c0-.552.449-1 1-1h44c.551 0 1 .448 1 1v44z"/><path d="M15 15h2v2h-2zM19 15h2v2h-2zM47 15h2v2h-2zM43 15h2v2h-2zM15 47h2v2h-2zM19 47h2v2h-2zM47 47h2v2h-2zM43 47h2v2h-2zM32 15a16.913 16.913 0 00-10.932 4H21v.062c-3.665 3.12-6 7.758-6 12.938 0 9.374 7.626 17 17 17s17-7.626 17-17-7.626-17-17-17zm12.667 9H43c-.155 0-.309.036-.447.105l-1.679.84C40.386 22.696 38.393 21 36 21v-1h4.962a15.105 15.105 0 013.705 4zM33 35c-1.654 0-3 1.346-3 3v2.382l-2-1V38a2.996 2.996 0 00-2-2.816v-1.77l.715-.715A2.95 2.95 0 0028 33c1.654 0 3-1.346 3-3s-1.346-3-3-3-3 1.346-3 3c0 .462.113.894.301 1.285l-1.008 1.008A.996.996 0 0024 33v2h-2c-.551 0-1-.448-1-1v-2c0-.552.449-1 1-1a1 1 0 001-1v-2c0-.552.449-1 1-1a1 1 0 001-1c0-1.654 1.346-3 3-3h4v3c0 .266.105.52.293.707l1.008 1.008A2.95 2.95 0 0033 29c0 1.654 1.346 3 3 3s3-1.346 3-3-1.346-3-3-3a2.95 2.95 0 00-1.285.301L34 25.586V23h2c1.654 0 3 1.346 3 3a1 1 0 001 1c.551 0 1 .448 1 1v2a1 1 0 001 1c.551 0 1 .448 1 1v2c0 .552-.449 1-1 1h-9zm1.684 5.948l2.316.773V46h.341a14.904 14.904 0 01-4.07.936L29 43.52v-1.401l1.553.776a1.005 1.005 0 00.973-.044c.294-.183.474-.504.474-.851v-4c0-.552.449-1 1-1h1v3c0 .431.275.813.684.948zM27 30a1.001 1.001 0 111 1c-.551 0-1-.448-1-1zm-3 11v-4h1c.551 0 1 .448 1 1v2c0 .379.214.725.553.895l.447.223V44a1 1 0 00.375.781l2.578 2.062a14.93 14.93 0 01-7.814-3.568l1.568-1.568A.996.996 0 0024 41zm-1-20.972a14.903 14.903 0 016.75-2.841L28.4 18.2a1 1 0 00-.4.8v2c-1.916 0-3.573 1.09-4.412 2.676L23 23.382v-3.354zM36 28a1.001 1.001 0 11-1 1c0-.552.449-1 1-1zm-2-9v2h-4v-1.5l3.249-2.437c1.431.119 2.802.443 4.092.937H35a1 1 0 00-1 1zm-13 2.836V24c0 .379.214.725.553.895l.987.493c-.63.353-1.12.923-1.365 1.612H19a.997.997 0 00-.707.293l-.745.745A14.975 14.975 0 0121 21.836zM17 32c0-.208.023-.411.031-.617L19.414 29H21v.171A3.006 3.006 0 0019 32v2c0 1.654 1.346 3 3 3v3.586l-1.275 1.275C18.413 39.221 17 35.776 17 32zm22 13.256V41a.997.997 0 00-.684-.948L36 39.279V37h3.382l1.724 3.447A.998.998 0 0042 41h1.972A15.094 15.094 0 0139 45.256zM45.256 39h-2.638l-1-2H42c1.654 0 3-1.346 3-3v-2a3.006 3.006 0 00-2-2.829V28c0-.604-.187-1.163-.495-1.634l.731-.366h2.503a14.907 14.907 0 01-.483 13z"/></svg>
