<svg xmlns="http://www.w3.org/2000/svg" viewBox="0 0 64 64"><path d="M38 28H26a1 1 0 00-1 1v12a1 1 0 001 1h12a1 1 0 001-1V29a1 1 0 00-1-1zm-1 12H27V30h10v10z"/><path d="M29 32h2v2h-2zM33 32h2v2h-2zM29 36h2v2h-2zM33 36h2v2h-2z"/><path d="M53.958 16.991c.028-.347.042-.673.042-.991 0-7.72-6.28-14-14-14a14.003 14.003 0 00-9.911 4.133A12.027 12.027 0 0025 5c-6.318 0-11.513 4.909-11.965 11.158C6.779 17.114 2 22.591 2 29c0 7.168 5.832 13 13 13h6v1c0 1.654 1.346 3 3 3h7v10h-7a1 1 0 00-1 1v1h-7v2h7v1a1 1 0 001 1h16a1 1 0 001-1v-1h7v-2h-7v-1a1 1 0 00-1-1h-7V46h7c1.654 0 3-1.346 3-3v-1h6c7.168 0 13-5.832 13-13a12.995 12.995 0 00-8.042-12.009zM39 60H25v-2h14v2zm2-17a1 1 0 01-1 1H24a1 1 0 01-1-1V27a1 1 0 011-1h16a1 1 0 011 1v16zm8-3h-6v-3h6a1 1 0 001-1v-6h1.184A2.996 2.996 0 0054 32c1.654 0 3-1.346 3-3s-1.346-3-3-3a2.996 2.996 0 00-2.816 2H49a1 1 0 00-1 1v6h-5v-8c0-1.654-1.346-3-3-3h-1v-2h8a1 1 0 001-1v-2.184A2.996 2.996 0 0050 16c0-1.654-1.346-3-3-3s-3 1.346-3 3c0 1.302.839 2.402 2 2.816V20h-8a1 1 0 00-1 1v3h-3v-7h6a1 1 0 001-1v-3.184A2.996 2.996 0 0043 10c0-1.654-1.346-3-3-3s-3 1.346-3 3c0 1.302.839 2.402 2 2.816V15h-6a1 1 0 00-1 1v8h-3v-4a1 1 0 00-1-1h-4v-2.184A2.996 2.996 0 0026 14c0-1.654-1.346-3-3-3s-3 1.346-3 3c0 1.302.839 2.402 2 2.816V20a1 1 0 001 1h4v3h-3c-1.654 0-3 1.346-3 3v4h-9v-3.184A2.996 2.996 0 0014 25c0-1.654-1.346-3-3-3s-3 1.346-3 3c0 1.302.839 2.402 2 2.816V32a1 1 0 001 1h10v7h-6C8.935 40 4 35.065 4 29c0-5.676 4.43-10.486 10.085-10.952.519-.043.915-.527.915-1.048 0-5.514 4.486-10 10-10 1.683 0 3.35.429 4.82 1.239a.997.997 0 001.229-.211A12.015 12.015 0 0140 4c6.617 0 12 5.383 12 12 0 .459-.035.944-.109 1.527-.06.471.22.919.668 1.073A10.997 10.997 0 0160 29c0 6.065-4.935 11-11 11zm4-11a1 1 0 112 0 1 1 0 01-2 0zm-7-13a1 1 0 112 0 1 1 0 01-2 0zm-7-6a1 1 0 112 0 1 1 0 01-2 0zm-17 4a1 1 0 112 0 1 1 0 01-2 0zM10 25a1 1 0 112 0 1 1 0 01-2 0z"/><path d="M16 19h2v2h-2zM17 25h2v2h-2zM11 35h2v2h-2zM16 36h2v2h-2zM30 11h2v2h-2zM45 9h2v2h-2zM50 22h2v2h-2zM46 25h2v2h-2zM52 34h2v2h-2zM12 58h2v2h-2zM50 58h2v2h-2zM27 52h2v2h-2zM23 52h2v2h-2zM39 52h2v2h-2zM35 52h2v2h-2z"/></svg>