<?xml version="1.0" encoding="UTF-8" standalone="no"?>
<!DOCTYPE svg PUBLIC "-//W3C//DTD SVG 1.1//EN" "http://www.w3.org/Graphics/SVG/1.1/DTD/svg11.dtd"><svg width="100%" height="100%" viewBox="0 0 1315 400" version="1.1" xmlns="http://www.w3.org/2000/svg" xmlns:xlink="http://www.w3.org/1999/xlink" xml:space="preserve" xmlns:serif="http://www.serif.com/" style="fill-rule:evenodd;clip-rule:evenodd;stroke-linejoin:round;stroke-miterlimit:2;">
  <rect id="valinor-earth-logo-text" x="0" y="0" width="1315" height="400" style="fill:none;" />
  <g>
    <g id="valinor-earth-logo">
      <path id="Path-Copy-55" d="M144.744,94.803c0.622,-28.84 24.684,-54.32 55.519,-54.32c30.835,0 54.689,24.492 55.486,54.32c0.165,6.156 -0.366,13.36 -3.707,21.917c-4.976,12.747 -22.166,37.275 -51.572,73.586c-29.828,-36.597 -47.114,-61.126 -51.858,-73.586c-3.317,-8.712 -4,-15.812 -3.868,-21.917Z" style="fill:#f0b81a;" />
      <path id="Path-Copy-56" d="M144.744,305.197c0.622,28.84 24.684,54.32 55.519,54.32c30.835,-0 54.689,-24.492 55.486,-54.32c0.165,-6.156 -0.366,-13.36 -3.707,-21.917c-4.976,-12.747 -22.166,-37.275 -51.572,-73.586c-29.828,36.597 -47.114,61.126 -51.858,73.586c-3.317,8.712 -4,15.812 -3.868,21.917Z" style="fill:#cfdff6;" />
      <path id="Path-Copy-57" d="M305.68,256.706c28.84,-0.623 54.32,-24.685 54.32,-55.52c0,-30.835 -24.492,-54.689 -54.32,-55.486c-6.156,-0.164 -13.36,0.367 -21.917,3.707c-12.747,4.976 -37.275,22.167 -73.585,51.572c36.596,29.828 61.125,47.114 73.585,51.858c8.712,3.317 15.812,4 21.917,3.869Z" style="fill:#c72;" />
      <path id="Path-Copy-58" d="M94.32,256.706c-28.84,-0.623 -54.32,-24.685 -54.32,-55.52c0,-30.835 24.492,-54.689 54.32,-55.486c6.156,-0.164 13.36,0.367 21.917,3.707c12.747,4.976 37.275,22.167 73.585,51.572c-36.596,29.828 -61.125,47.114 -73.585,51.858c-8.712,3.317 -15.812,4 -21.917,3.869Z" style="fill:#0e78be;" />
    </g>
    <path d="M513.626,152.376l-27.792,99.792l-29.376,0l-28.8,-99.792l24.912,0l19.008,81.36l17.856,-81.36l24.192,0Z" style="fill:#4a5568;fill-rule:nonzero;" />
    <path d="M581.306,229.992c-0,2.88 0.408,4.992 1.224,6.336c0.816,1.344 2.136,2.352 3.96,3.024l-4.752,14.832c-4.704,-0.384 -8.544,-1.416 -11.52,-3.096c-2.976,-1.68 -5.28,-4.344 -6.912,-7.992c-4.992,7.68 -12.672,11.52 -23.04,11.52c-7.584,0 -13.632,-2.208 -18.144,-6.624c-4.512,-4.416 -6.768,-10.176 -6.768,-17.28c-0,-8.352 3.072,-14.736 9.216,-19.152c6.144,-4.416 15.024,-6.624 26.64,-6.624l7.776,0l-0,-3.312c-0,-4.512 -0.96,-7.608 -2.88,-9.288c-1.92,-1.68 -5.28,-2.52 -10.08,-2.52c-2.496,0 -5.52,0.36 -9.072,1.08c-3.552,0.72 -7.2,1.704 -10.944,2.952l-5.184,-14.976c4.8,-1.824 9.72,-3.216 14.76,-4.176c5.04,-0.96 9.72,-1.44 14.04,-1.44c10.944,0 18.96,2.256 24.048,6.768c5.088,4.512 7.632,11.28 7.632,20.304l-0,29.664Zm-34.416,8.352c5.184,0 9.216,-2.448 12.096,-7.344l-0,-13.536l-5.616,0c-5.184,0 -9.048,0.912 -11.592,2.736c-2.544,1.824 -3.816,4.656 -3.816,8.496c-0,3.072 0.792,5.448 2.376,7.128c1.584,1.68 3.768,2.52 6.552,2.52Z" style="fill:#4a5568;fill-rule:nonzero;" />
    <path d="M619.754,254.616c-6.624,0 -11.784,-1.896 -15.48,-5.688c-3.696,-3.792 -5.544,-9.192 -5.544,-16.2l-0,-87.408l22.752,-2.448l-0,88.992c-0,3.168 1.296,4.752 3.888,4.752c1.344,0 2.592,-0.24 3.744,-0.72l4.464,16.128c-4.128,1.728 -8.736,2.592 -13.824,2.592Z" style="fill:#4a5568;fill-rule:nonzero;" />
    <path d="M664.97,175.704l-0,76.464l-22.752,0l-0,-76.464l22.752,0Zm-11.52,-40.32c3.936,0 7.176,1.224 9.72,3.672c2.544,2.448 3.816,5.544 3.816,9.288c-0,3.744 -1.272,6.84 -3.816,9.288c-2.544,2.448 -5.784,3.672 -9.72,3.672c-3.936,0 -7.152,-1.224 -9.648,-3.672c-2.496,-2.448 -3.744,-5.544 -3.744,-9.288c-0,-3.744 1.248,-6.84 3.744,-9.288c2.496,-2.448 5.712,-3.672 9.648,-3.672Z" style="fill:#4a5568;fill-rule:nonzero;" />
    <path d="M727.61,173.256c6.624,0 11.808,2.016 15.552,6.048c3.744,4.032 5.616,9.696 5.616,16.992l-0,55.872l-22.752,0l-0,-51.984c-0,-3.84 -0.6,-6.504 -1.8,-7.992c-1.2,-1.488 -3,-2.232 -5.4,-2.232c-4.608,0 -9.024,3.312 -13.248,9.936l-0,52.272l-22.752,0l-0,-76.464l19.872,0l1.584,9.072c3.264,-3.84 6.792,-6.72 10.584,-8.64c3.792,-1.92 8.04,-2.88 12.744,-2.88Z" style="fill:#4a5568;fill-rule:nonzero;" />
    <path d="M799.034,173.256c11.712,0 20.88,3.576 27.504,10.728c6.624,7.152 9.936,17.16 9.936,30.024c-0,8.16 -1.512,15.288 -4.536,21.384c-3.024,6.096 -7.344,10.824 -12.96,14.184c-5.616,3.36 -12.264,5.04 -19.944,5.04c-11.616,0 -20.76,-3.576 -27.432,-10.728c-6.672,-7.152 -10.008,-17.16 -10.008,-30.024c-0,-8.16 1.512,-15.288 4.536,-21.384c3.024,-6.096 7.344,-10.824 12.96,-14.184c5.616,-3.36 12.264,-5.04 19.944,-5.04Zm-0,16.704c-4.608,0 -8.064,1.944 -10.368,5.832c-2.304,3.888 -3.456,9.912 -3.456,18.072c-0,8.352 1.128,14.448 3.384,18.288c2.256,3.84 5.736,5.76 10.44,5.76c4.608,0 8.064,-1.944 10.368,-5.832c2.304,-3.888 3.456,-9.912 3.456,-18.072c-0,-8.352 -1.128,-14.448 -3.384,-18.288c-2.256,-3.84 -5.736,-5.76 -10.44,-5.76Z" style="fill:#4a5568;fill-rule:nonzero;" />
    <path d="M891.482,173.544c2.784,0 5.328,0.336 7.632,1.008l-3.6,22.032c-2.88,-0.672 -5.184,-1.008 -6.912,-1.008c-4.512,0 -7.944,1.56 -10.296,4.68c-2.352,3.12 -4.2,7.8 -5.544,14.04l-0,37.872l-22.752,0l-0,-76.464l19.872,0l1.872,14.832c1.728,-5.28 4.344,-9.432 7.848,-12.456c3.504,-3.024 7.464,-4.536 11.88,-4.536Z" style="fill:#4a5568;fill-rule:nonzero;" />
    <path d="M1003.51,152.376l-2.448,16.848l-35.136,0l-0,23.904l30.672,0l-0,16.56l-30.672,0l-0,25.488l37.584,0l-0,16.992l-61.2,0l-0,-99.792l61.2,0Z" style="fill:#4a5568;fill-rule:nonzero;" />
    <path d="M1078.39,229.992c-0,2.88 0.408,4.992 1.224,6.336c0.816,1.344 2.136,2.352 3.96,3.024l-4.752,14.832c-4.704,-0.384 -8.544,-1.416 -11.52,-3.096c-2.976,-1.68 -5.28,-4.344 -6.912,-7.992c-4.992,7.68 -12.672,11.52 -23.04,11.52c-7.584,0 -13.632,-2.208 -18.144,-6.624c-4.512,-4.416 -6.768,-10.176 -6.768,-17.28c-0,-8.352 3.072,-14.736 9.216,-19.152c6.144,-4.416 15.024,-6.624 26.64,-6.624l7.776,0l-0,-3.312c-0,-4.512 -0.96,-7.608 -2.88,-9.288c-1.92,-1.68 -5.28,-2.52 -10.08,-2.52c-2.496,0 -5.52,0.36 -9.072,1.08c-3.552,0.72 -7.2,1.704 -10.944,2.952l-5.184,-14.976c4.8,-1.824 9.72,-3.216 14.76,-4.176c5.04,-0.96 9.72,-1.44 14.04,-1.44c10.944,0 18.96,2.256 24.048,6.768c5.088,4.512 7.632,11.28 7.632,20.304l-0,29.664Zm-34.416,8.352c5.184,0 9.216,-2.448 12.096,-7.344l-0,-13.536l-5.616,0c-5.184,0 -9.048,0.912 -11.592,2.736c-2.544,1.824 -3.816,4.656 -3.816,8.496c-0,3.072 0.792,5.448 2.376,7.128c1.584,1.68 3.768,2.52 6.552,2.52Z" style="fill:#4a5568;fill-rule:nonzero;" />
    <path d="M1138.01,173.544c2.784,0 5.328,0.336 7.632,1.008l-3.6,22.032c-2.88,-0.672 -5.184,-1.008 -6.912,-1.008c-4.512,0 -7.944,1.56 -10.296,4.68c-2.352,3.12 -4.2,7.8 -5.544,14.04l-0,37.872l-22.752,0l-0,-76.464l19.872,0l1.872,14.832c1.728,-5.28 4.344,-9.432 7.848,-12.456c3.504,-3.024 7.464,-4.536 11.88,-4.536Z" style="fill:#4a5568;fill-rule:nonzero;" />
    <path d="M1202.23,248.568c-2.784,1.92 -6.024,3.408 -9.72,4.464c-3.696,1.056 -7.368,1.584 -11.016,1.584c-16.704,-0.096 -25.056,-9.312 -25.056,-27.648l-0,-35.424l-10.8,0l-0,-15.84l10.8,0l-0,-16.56l22.752,-2.592l-0,19.152l17.568,0l-2.448,15.84l-15.12,0l-0,35.136c-0,3.552 0.576,6.096 1.728,7.632c1.152,1.536 2.976,2.304 5.472,2.304c2.592,0 5.328,-0.816 8.208,-2.448l7.632,14.4Z" style="fill:#4a5568;fill-rule:nonzero;" />
    <path d="M1254.65,173.256c6.624,0 11.808,2.016 15.552,6.048c3.744,4.032 5.616,9.696 5.616,16.992l-0,55.872l-22.752,0l-0,-51.984c-0,-3.84 -0.624,-6.504 -1.872,-7.992c-1.248,-1.488 -3.024,-2.232 -5.328,-2.232c-4.608,0 -9.024,3.264 -13.248,9.792l-0,52.416l-22.752,0l-0,-106.848l22.752,-2.304l-0,40.896c3.168,-3.552 6.528,-6.216 10.08,-7.992c3.552,-1.776 7.536,-2.664 11.952,-2.664Z" style="fill:#4a5568;fill-rule:nonzero;" />
  </g>
</svg>
