<svg viewBox="0 0 411 449" xmlns="http://www.w3.org/2000/svg" fill-rule="evenodd" clip-rule="evenodd" stroke-miterlimit="10"><path fill="#ebf0f8" d="M0 35.05h375v413H0z"/><path d="M359.917 422.21V306.117" fill="none" stroke="#3380bd" stroke-width="2"/><circle cx="996.917" cy="455.131" r="16.417" fill="#3380bd" transform="translate(-637 -149.014)"/><path d="M359.92 377.668s-2.35-50.443-50.43-44.58" fill="#3380bd" fill-rule="nonzero"/><path d="M213.007 422.365V40.361" fill="none" stroke="#3380bd" stroke-width="2"/><circle cx="850.007" cy="189.192" r="16.417" fill="#3380bd" transform="translate(-637 -149.014)"/><circle cx="799.583" cy="469.357" r="16.417" fill="#3380bd" transform="translate(-637 -149.014)"/><path d="M213.007 124.038s-2.345-50.443-50.424-44.58M213.007 267.038s-2.345-50.443-50.424-44.58" fill="#3380bd" fill-rule="nonzero"/><path d="M213.007 417.852s10.554-92.818-50.424-97.509" fill="none" stroke="#3380bd" stroke-width="2"/><circle cx="900.439" cy="469.357" r="16.417" fill="#3380bd" transform="translate(-637 -149.014)"/><path d="M213.014 417.852s-10.554-92.818 50.425-97.509" fill="none" stroke="#3380bd" stroke-width="2"/><circle cx="901.439" cy="315.357" r="16.417" fill="#3380bd" transform="translate(-637 -149.014)"/><path d="M214.014 263.852s-10.554-92.818 50.425-97.509M99.356 422.865V190.678" fill="none" stroke="#3380bd" stroke-width="2"/><circle cx="736.356" cy="339.692" r="16.417" fill="#3380bd" transform="translate(-637 -149.014)"/><path d="M99.356 257.538s-2.345-50.443-50.424-44.58" fill="#3380bd" fill-rule="nonzero"/><path d="M99.356 418.352s10.554-92.818-50.424-97.509" fill="none" stroke="#3380bd" stroke-width="2"/><circle cx="685.932" cy="469.857" r="16.417" fill="#3380bd" transform="translate(-637 -149.014)"/><circle cx="736" cy="237.064" r="64" fill="#f1b94e" transform="translate(-637 -149.014)"/><path fill="none" stroke="#3380bd" stroke-width="2" d="M25 10.05h375v413H25z"/></svg>