<?xml version="1.0" encoding="utf-8"?>
<!-- Generator: Adobe Illustrator 22.1.0, SVG Export Plug-In . SVG Version: 6.00 Build 0)  -->
<svg version="1.1"
	 id="svg126" inkscape:export-filename="/home/adam/Downloads/ab_Wyvern02-01_resized_new_blackbkg.png" inkscape:export-xdpi="260.57144" inkscape:export-ydpi="260.57144" inkscape:version="0.92.3 (3ce5693, 2018-03-11)" sodipodi:docname="ab_Wyvern02-02_resized_new.svg" xmlns:cc="http://creativecommons.org/ns#" xmlns:dc="http://purl.org/dc/elements/1.1/" xmlns:inkscape="http://www.inkscape.org/namespaces/inkscape" xmlns:rdf="http://www.w3.org/1999/02/22-rdf-syntax-ns#" xmlns:sodipodi="http://sodipodi.sourceforge.net/DTD/sodipodi-0.dtd" xmlns:svg="http://www.w3.org/2000/svg"
	 xmlns="http://www.w3.org/2000/svg" xmlns:xlink="http://www.w3.org/1999/xlink" x="0px" y="0px" viewBox="0 0 10768 2121.4"
	 style="enable-background:new 0 0 10768 2121.4;" xml:space="preserve">
<style type="text/css">
	.st0{fill:#AFC4DE;}
	.st1{fill:#2E4F7B;}
</style>
<sodipodi:namedview  bordercolor="#666666" borderopacity="1" gridtolerance="10" guidetolerance="10" id="namedview128" inkscape:current-layer="svg126" inkscape:cx="292.50437" inkscape:cy="277.94296" inkscape:pageopacity="0" inkscape:pageshadow="2" inkscape:window-height="1752" inkscape:window-maximized="1" inkscape:window-width="3090" inkscape:window-x="110" inkscape:window-y="48" inkscape:zoom="3.3529412" objecttolerance="10" pagecolor="#ffffff" showgrid="false">
	</sodipodi:namedview>
<g id="Grid">
</g>
<g id="Fonts">
</g>
<g id="g107">
	<path id="path95" inkscape:connector-curvature="0" class="st0" d="M3972.5,475.2L3545,1741.1h-141.1L3034.5,662L2661,1741.1h-137
		L2096.5,475.2h137l365.2,1087.4l377.7-1087.4h124.5l373.5,1091.6l369.4-1091.6H3972.5z"/>
	<path id="path97" inkscape:connector-curvature="0" class="st0" d="M4732.1,1301.2V1737h-132.8v-435.8l-506.4-826H4234l431.7,709.7
		l431.7-709.7h132.8L4732.1,1301.2z"/>
	<path id="path99" inkscape:connector-curvature="0" class="st0" d="M6554.2,475.2l-560.3,1265.9H5861L5300.7,475.2H5446
		l485.6,1099.9l485.6-1099.9H6554.2z"/>
	<path id="path101" inkscape:connector-curvature="0" class="st0" d="M7720.4,1624.9v116.2h-892.4V475.2h867.5v116.2h-734.6v448.3
		h651.6v112.1h-651.6v469h759.5L7720.4,1624.9z"/>
	<path id="path103" inkscape:connector-curvature="0" class="st0" d="M8986.4,1741.1l-290.5-406.7c-33.2,4.2-66.4,4.2-99.6,4.2
		h-340.3v402.6H8123V475.2h473.2c161.9,0,286.4,37.4,377.7,116.2c91.3,78.9,137,182.6,137,319.6c0,99.6-24.9,182.6-74.7,249
		c-49.8,66.4-120.4,116.2-215.8,145.3l307.1,431.7h-141.1L8986.4,1741.1z M8882.6,1143.4c66.4-54,99.6-132.8,99.6-232.4
		c0-103.8-33.2-182.6-99.6-236.6c-66.4-54-161.9-83-286.4-83H8260v635h336.2C8720.7,1226.4,8816.2,1197.4,8882.6,1143.4
		L8882.6,1143.4z"/>
	<path id="path105" inkscape:connector-curvature="0" class="st0" d="M10576,475.2v1265.9h-107.9L9654.6,715.9v1025.2h-132.8V475.2
		h112.1l813.5,1025.2V475.2H10576z"/>
</g>
<path id="path109" inkscape:connector-curvature="0" class="st1" d="M1763.8,984.5c-88.5,50.6,59,81.5,59,81.5
	C1773.7,1026.6,1763.8,984.5,1763.8,984.5z"/>
<path id="path111" inkscape:connector-curvature="0" class="st1" d="M1501,888.9c5.6,1.4,11.2,2.8,15.5,4.2
	c8.4,1.4,14.1,2.8,14.1,2.8l-97-80.1l-15.5-12.6l0,0c-5.6,11.2-5.6,19.7-4.2,28.1C1422.3,863.6,1468.7,880.5,1501,888.9L1501,888.9z
	"/>
<path id="path113" inkscape:connector-curvature="0" class="st1" d="M878.5,1039.3c7-9.8,14.1-19.7,22.5-30.9
	c-1.4-1.4-2.8-2.8-4.2-2.8c-15.5,16.9-32.3,33.7-47.8,52c-67.5,84.3-101.2,181.3-115.2,286.7c-4.2,26.7-5.6,53.4-7,80.1
	c16.9,22.5,35.1,46.4,53.4,67.5c-15.5-147.6,0-289.5,77.3-421.6C863,1060.4,870.1,1049.1,878.5,1039.3L878.5,1039.3z"/>
<path id="path115" inkscape:connector-curvature="0" class="st1" d="M782.9,1809.4c-94.2-91.3-184.1-195.3-264.2-310.6
	c-2.8-4.2-7-9.8-9.8-14.1c-156-226.2-262.8-468-307.8-694.2c-15.5,43.6-26.7,89.9-35.1,136.3c-92.7,507.3,243.1,993.5,750.4,1086.3
	c50.6,9.8,99.8,14.1,149,15.5c-23.9-14.1-46.4-29.5-70.3-45C920.7,1933.1,850.4,1875.4,782.9,1809.4L782.9,1809.4z"/>
<path id="path117" inkscape:connector-curvature="0" class="st1" d="M1250.9,177.9c-320.4-59-632.4,53.4-841.8,271.2
	c-12.6,63.2-14.1,136.3-7,217.8c18.3,172.8,82.9,361.2,185.5,545.2c43.6-108.2,101.2-185.5,151.8-238.9
	c35.1-35.1,74.5-66,119.4-92.7c-21.1-5.6-50.6-2.8-70.3,0c-14.1,2.8-23.9,4.2-23.9,4.2c45-64.6,193.9-134.9,379.4-175.7
	c-8.4-2.8-14.1-5.6-19.7-7c-119.4-36.5-233.3-81.5-337.3-151.8c-73.1-49.2-119.4-120.9-156-199.5c-1.4-2.8-1.4-5.6-1.4-8.4
	c77.3,108.2,174.3,185.5,309.2,208c-40.8-25.3-88.5-42.2-102.6-95.6c-4.2-18.3-7-37.9-8.4-57.6c14.1,19.7,26.7,40.8,42.2,59
	c54.8,61.8,126.5,101.2,201,132.1c99.8,42.2,202.4,67.5,309.2,84.3c15.5,2.8,29.5,5.6,45,7c0-1.4,1.4-2.8,1.4-4.2
	c-35.1-14.1-71.7-26.7-105.4-43.6c-87.1-45-151.8-111-179.9-208c0-1.4,0-4.2,0-8.4c46.4,68.9,101.2,123.7,171.4,156
	c-2.8-37.9-7-74.5-9.8-111c1.4,0,4.2,0,5.6,0c7,18.3,12.6,36.5,21.1,53.4c25.3,52,66,91.3,111,125.1c25.3,19.7,50.6,37.9,73.1,59
	l0,0c28.1,23.9,53.4,70.3,71.7,106.8c2.8,5.6,5.6,9.8,7,14.1c5.6,11.2,11.2,21.1,15.5,28.1c2.8,4.2,5.6,8.4,7,8.4
	c22.5,12.6,36.5,23.9,46.4,32.3c1.4,1.4,2.8,2.8,4.2,4.2c9.8,9.8,14.1,16.9,21.1,18.3l0,0h1.4l0,0c1.4,0,1.4,0,2.8,0
	c12.6,0,22.5,4.2,30.9,9.8c8.4,5.6,15.5,14.1,22.5,18.3c4.2,2.8,8.4,5.6,12.6,5.6h1.4c2.8,0,5.6,0,8.4,0c9.8,1.4,19.7,2.8,28.1,5.6
	c8.4,1.4,14.1,2.8,14.1,2.8c67.5,28.1,57.6,112.4,50.6,137.7c-4.2,14.1-9.8,15.5-15.5,14.1c-4.2-1.4-8.4-4.2-8.4-4.2
	c-1.4,2.8-2.8,4.2-4.2,7c-2.8,2.8-5.6,5.6-9.8,9.8c-12.6,11.2-32.3,21.1-37.9,23.9c-1.4,0-2.8,1.4-2.8,1.4
	c-9.8,37.9-49.2,89.9-49.2,89.9c2.8-35.1-37.9-61.8-37.9-61.8c-2.8,22.5-26.7,40.8-26.7,40.8c-50.6-122.3-199.5-92.7-295.1-77.3
	c-8.4,1.4-15.5,2.8-22.5,2.8c-91.3,12.6-126.5-33.7-195.3-73.1c-1.4-1.4-4.2-2.8-5.6-2.8c-1.4,0-2.8-1.4-2.8-1.4
	c-54.8-37.9-52-111-50.6-122.3c0-1.4,0-1.4,0-1.4c-1.4,2.8-2.8,5.6-4.2,7l0,0c0,0,0,0,0,1.4c-5.6,12.6-9.8,28.1-11.2,42.2
	c-4.2,45,7,108.2,32.3,181.3c0,0-1.4,1.4-4.2,2.8c-19.7,9.8-36.5,21.1-52,36.5c-15.5,14.1-30.9,32.3-40.8,54.8
	c-73.1-25.3-102.6-81.5-106.8-158.8c-25.3,67.5,7,150.4,73.1,185.5c9.8,4.2,15.5,9.8,19.7,16.9c-2.8,15.5-2.8,32.3,0,50.6
	c2.8,14.1,7,32.3,15.5,50.6c-57.6,1.4-112.4-12.6-165.8-43.6c9.8,19.7,39.3,43.6,71.7,57.6c35.1,15.5,73.1,22.5,111,21.1
	c21.1,40.8,53.4,87.1,95.6,132.1c-22.5,7-45,11.2-67.5,14.1c-53.4,7-106.8,1.4-160.2-8.4c0,2.8,0,4.2-1.4,7
	c25.3,7,52,14.1,77.3,19.7c61.8,12.6,123.7,15.5,182.7,1.4c74.5,71.7,175.7,140.5,303.5,186.9c53.4,19.7,112.4,35.1,175.7,45
	c36.5-26.7,70.3-57.6,102.6-89.9c127.9-129.3,219.2-296.5,254.4-489C2092.7,756.8,1756.8,270.6,1250.9,177.9z"/>
<path id="path119" inkscape:connector-curvature="0" class="st0" d="M1734.3,1938.7c-60.4,42.2-132.1,61.8-210.8,61.8
	c-269.8,0-621.1-231.9-881.1-608.5C306.6,905.8,250.3,362,517.3,177.9c60.4-42.2,132.1-61.8,210.8-61.8c12.6,0,23.9,0,36.5,1.4
	c-53.4-14.1-105.4-22.5-154.6-22.5c-80.1,0-153.2,19.7-213.6,61.8C116.8,349.3,185.7,931.1,548.3,1456.7
	c282.5,410.3,661.9,664.7,947.2,664.7c80.1,0,153.2-19.7,213.6-61.8c98.4-67.5,153.2-184.1,168.6-330.2
	C1851,1819.2,1803.2,1890.9,1734.3,1938.7L1734.3,1938.7z"/>
</svg>
