<?xml version="1.0" encoding="UTF-8" standalone="no"?>
<!DOCTYPE svg PUBLIC "-//W3C//DTD SVG 1.1//EN" "http://www.w3.org/Graphics/SVG/1.1/DTD/svg11.dtd">
<svg width="100%" height="100%" viewBox="0 0 600 600" version="1.1" xmlns="http://www.w3.org/2000/svg" xmlns:xlink="http://www.w3.org/1999/xlink" xml:space="preserve" xmlns:serif="http://www.serif.com/" style="fill-rule:evenodd;clip-rule:evenodd;stroke-linejoin:round;stroke-miterlimit:2;">
    <g transform="matrix(0.24,0,0,0.24,0,0)">
        <g transform="matrix(4.16667,0,0,4.16667,-833.333,-416.667)">
            <path d="M561.914,320.098C543.423,295.871 514.668,277.703 483.633,264.139C459.988,293.951 440.561,327.795 436.184,361.776C436.151,362.032 436.131,362.284 436.101,362.54C462.124,342.116 495.231,326.902 533.866,331.878C543.746,333.15 553.611,335.723 563.371,339.275C566.785,339.109 570.188,338.967 573.56,338.872C570.392,332.455 566.55,326.173 561.914,320.098Z" style="fill:rgb(38,76,35);fill-rule:nonzero;"/>
            <path d="M468.967,372.096C499.934,354.773 537.873,344.689 573.56,338.872C569.565,332.934 564.923,327.218 559.52,321.815C488.833,251.129 317.428,259.631 317.428,259.631C317.428,259.631 308.924,431.037 379.611,501.724C379.793,501.906 379.981,502.075 380.165,502.256C379.896,469.177 388.08,433.672 415.625,406.127C430.001,391.751 448.549,380.658 468.967,372.096Z" style="fill:rgb(59,178,73);fill-rule:nonzero;"/>
            <path d="M589.839,164.633C589.839,164.633 528.979,206.969 483.633,264.139C514.668,277.703 543.423,295.871 561.914,320.098C566.55,326.173 570.392,332.455 573.56,338.872C570.188,338.967 566.785,339.109 563.371,339.275C564.2,339.577 565.029,339.873 565.856,340.189C616.946,331.035 664.792,330.91 682.893,331.275C660.583,247.461 589.839,164.633 589.839,164.633Z" style="fill:rgb(140,197,67);fill-rule:nonzero;"/>
            <path d="M415.601,613.783C415.601,613.783 538.709,670.583 609.396,599.897C680.082,529.211 671.579,357.805 671.579,357.805L415.601,613.783Z" style="fill:rgb(16,153,74);fill-rule:nonzero;"/>
            <path d="M429.486,419.988C358.801,490.675 415.601,613.783 415.601,613.783L671.579,357.805C671.579,357.805 500.173,349.302 429.486,419.988Z" style="fill:rgb(12,147,71);fill-rule:nonzero;"/>
        </g>
    </g>
</svg>
