<svg width="52" height="40" xmlns="http://www.w3.org/2000/svg"><g fill="none" fill-rule="evenodd"><path d="M50.365 28.503a.543.543 0 00-.185-.27c-.171-.142-.407-.213-.71-.213-.524 0-.926.273-1.205.818h2.14a1.44 1.44 0 00-.04-.335zm-2.257 2.259c.15.191.394.294.731.307.265.006.476-.027.634-.099.157-.07.293-.15.407-.236.114-.087.222-.167.324-.242a.659.659 0 01.398-.112.55.55 0 01.422.168c.105.11.141.254.11.427-.028.15-.128.302-.302.46a3.034 3.034 0 01-.635.433 4.12 4.12 0 01-.819.316 3.24 3.24 0 01-.85.12 4.328 4.328 0 01-1.234-.176 2.109 2.109 0 01-.877-.507 1.707 1.707 0 01-.459-.855c-.078-.344-.072-.748.018-1.212.082-.422.24-.799.473-1.13.236-.331.518-.614.851-.845.332-.233.698-.41 1.097-.531.4-.12.804-.18 1.215-.18.435 0 .82.065 1.153.2.333.133.6.324.8.576.2.25.321.562.365.934.044.371-.005.792-.148 1.264l-.039.046h-3.777c-.055.39-.008.682.142.874zm-4.97-2.407c.074-.335.1-.66.074-.977-.037-.483-.207-.864-.508-1.142-.3-.28-.707-.419-1.218-.419h-.692l-1.198 5.4h.767c.739 0 1.365-.31 1.882-.93.416-.508.71-1.152.883-1.932h.01zm.628 2.843c-.787.62-1.734.93-2.838.93H37.33l1.446-6.561a.836.836 0 01.309-.47.82.82 0 01.522-.2h2.576c1.148 0 2.021.344 2.62 1.031.598.688.772 1.596.523 2.724-.24 1.078-.76 1.927-1.56 2.546zm-18.622-3.327h-.663c-.36 0-.668.096-.926.289a.791.791 0 00-.202.25 3.183 3.183 0 00-.184.381 4.923 4.923 0 00-.23.744 1.779 1.779 0 00-.059.302c-.017.133-.029.271-.035.413-.007.143-.004.274.007.396.011.12.035.2.07.236.051.056.106.102.165.136a.71.71 0 00.244.074c.104.015.242.024.415.028.173.003.398.004.675.004l.723-3.253zm1.105 4.359c-.217.985-.587 1.681-1.107 2.091-.52.41-1.279.613-2.276.613h-2.5l.22-.984h2.148c.158 0 .305-.004.443-.01a.817.817 0 00.368-.102.803.803 0 00.286-.307c.082-.142.149-.347.202-.613.01-.074.032-.172.065-.293.033-.12.072-.284.118-.488l-1.74-.01c-.448 0-.802-.07-1.061-.209a1.28 1.28 0 01-.566-.567 1.804 1.804 0 01-.171-.827c.003-.313.042-.636.116-.97.09-.403.213-.76.37-1.07.157-.31.359-.571.605-.785.246-.214.543-.376.89-.488.346-.111.75-.167 1.21-.167h2.85a.533.533 0 01.533.67l-1.003 4.516zm-9.771-5.028c.122-.092.248-.168.38-.223.133-.056.258-.101.376-.135a2.147 2.147 0 01.536-.088c.439.012.809.065 1.111.158.301.093.541.223.722.39.18.168.308.371.38.613a2.526 2.526 0 01.072 1.023 17.942 17.942 0 01-.139.688l-.163.734-.245 1.106a.662.662 0 01-.165.316.994.994 0 01-.288.209c-.11.053-.229.092-.357.116a1.674 1.674 0 01-.71 0 .947.947 0 01-.306-.116.554.554 0 01-.2-.209.444.444 0 01-.028-.316l.413-1.868c.076-.34.126-.626.148-.855.022-.23.014-.414-.024-.553a.499.499 0 00-.22-.307.937.937 0 00-.445-.107l-.139.005a1.582 1.582 0 00-.618.181 1.043 1.043 0 00-.32.27l-.862 3.884-2.056.01 1.177-5.307h2.055l-.085.381zm-5.915 1.524a3.377 3.377 0 00-.414.116c-.11.04-.2.087-.268.14a1.244 1.244 0 00-.194.19c-.083.118-.165.25-.248.395a2.164 2.164 0 00-.209.6c-.036.161-.04.31-.01.45.029.14.083.263.163.372a.836.836 0 00.313.256c.128.061.274.092.439.092.066.013.143 0 .23-.037.087-.037.183-.12.288-.25l.543-2.445a12.6 12.6 0 00-.633.121zm-.58 3.332c-.134.04-.287.06-.457.06-.322 0-.626-.038-.912-.116a1.994 1.994 0 01-.726-.353 1.319 1.319 0 01-.429-.604c-.088-.245-.094-.537-.018-.878.046-.211.128-.4.244-.567.116-.168.256-.315.42-.442.163-.127.35-.238.557-.334.208-.096.427-.184.66-.265a14.733 14.733 0 011.332-.288 9.95 9.95 0 00.384-.065c-.125-.26-.384-.391-.775-.391h-1.77c-.275-.012-.377-.18-.306-.502a.675.675 0 01.19-.339.462.462 0 01.334-.144h2.121c1.88 0 2.642.808 2.283 2.426l-.63 2.835c0 .006-.02.012-.06.018a2.45 2.45 0 01-.268.014c-.14.003-.348.005-.626.005h-1.127l.04-.26c-.172.087-.324.15-.46.19zm-5.969.07l-1.01-3.68h.227c.568 0 1.006-.081 1.313-.242.38-.205.63-.574.748-1.106.043-.192.048-.37.019-.534a.967.967 0 00-.181-.424.896.896 0 00-.365-.274 1.338 1.338 0 00-.523-.097h-.767l-1.411 6.357H0l1.447-6.561a.817.817 0 01.314-.475.854.854 0 01.535-.195h3.01c.657 0 1.204.195 1.641.586.468.421.633.948.492 1.58a2.355 2.355 0 01-.788 1.292 3.335 3.335 0 01-1.393.687l1.095 3.086H4.014z" fill="#000"/><path d="M41.926 18.42s-6.098 3.594-8.85 8.797c-2.938 5.557-2.543 12.746-2.543 12.746s1.961-7.81 4.074-11.993c2.112-4.183 7.32-9.55 7.32-9.55" fill="#EC5332"/><path d="M23.78 19.715s1.328.208 2.996 1.385c1.973 1.394 4.34 3.822 4.97 7.836-.037 6.218-5.514 10.287-5.514 10.287s3.81-4.183 3.697-9.773c-.113-5.59-6.15-9.735-6.15-9.735M32.82 22.97c.716.137 1.144 1.02.956 1.972-.187.952-.92 1.613-1.636 1.477-.716-.136-1.145-1.018-.956-1.97.187-.952.92-1.614 1.636-1.478" fill="#EC5332"/><path d="M41.888 20.455s2.737-.694 4.657-.014c1.947.69 3.078 2.754 3.078 2.754s-2.466.599-4.363-.074c-1.969-.697-3.372-2.666-3.372-2.666" fill="#B7D03D"/><path d="M39.282 16.25s3.362-1.496 5.987-1.045c2.662.458 4.589 2.864 4.589 2.864s-3.035 1.314-5.63.868c-2.692-.463-4.946-2.687-4.946-2.687" fill="#00A9DD"/><path d="M34.66 14.833s2.108-3.062 4.634-4.046c2.563-.998 5.546.083 5.546.083s-1.923 2.734-4.42 3.705c-2.59 1.009-5.76.258-5.76.258" fill="#B7D03D"/><path d="M42.091 4.988s-1.432 3.418-3.703 4.883c-2.305 1.486-5.449 1.02-5.449 1.02s1.32-3.059 3.565-4.506c2.33-1.503 5.587-1.397 5.587-1.397" fill="#E32642"/><path d="M29.968.11s2.61 2.799 2.934 5.45c.328 2.69-1.628 5.233-1.628 5.233s-2.317-2.538-2.637-5.158C28.304 2.916 29.968.11 29.968.11" fill="#00A9DD"/><path d="M21.199 5.935s3.402.036 5.334 1.426c1.959 1.41 2.448 4.174 2.448 4.174s-3.056-.063-4.964-1.437c-1.982-1.425-2.818-4.163-2.818-4.163" fill="#B7D03D"/><path d="M14.275 12.55s3.325-2.025 6.074-1.846c2.788.182 5 2.57 5 2.57s-3.005 1.789-5.722 1.611c-2.82-.184-5.352-2.334-5.352-2.334" fill="#E32642"/><path d="M15.426 21.488s1.598-3.507 3.977-4.872c2.413-1.382 5.609-.622 5.609-.622s-1.47 3.136-3.82 4.484c-2.44 1.397-5.766 1.01-5.766 1.01" fill="#B7D03D"/><path d="M26.005 15.236s-.415 1.826.278 3.122c.721 1.35 2.552 2.172 2.552 2.172s.724-2.286-.002-3.645c-.687-1.285-2.828-1.649-2.828-1.649" fill="#00A9DD"/><path d="M30.042 16.902s-.365-1.537.39-2.822c.81-1.377 2.742-2.508 2.742-2.508s.82 2.37-.02 3.801c-.715 1.217-3.112 1.53-3.112 1.53" fill="#B7D03D"/><path d="M33.589 20.53s.142-1.637 1.314-2.525c1.377-1.043 3.817-1.362 3.817-1.362s-.506 2.402-1.848 3.418c-1.217.922-3.283.469-3.283.469" fill="#E32642"/></g></svg>