<svg width="2em" height="2em" viewBox="0 0 400 400" xmlns="http://www.w3.org/2000/svg"title="Logo of Valinor Earth"><path fill="none" d="M0 0h400v400H0z"/><path d="M131.276 69.162c.774-35.87 30.7-67.56 69.052-67.56 38.352 0 68.02 30.461 69.011 67.56.205 7.657-.456 16.616-4.611 27.26-6.188 15.854-27.57 46.36-64.142 91.52-37.099-45.517-58.598-76.023-64.499-91.52-4.124-10.836-4.975-19.667-4.81-27.26z" fill="#f0b81a"/><path d="M131.276 330.84c.774 35.868 30.7 67.559 69.052 67.559 38.352 0 68.02-30.461 69.011-67.56.205-7.656-.456-16.616-4.611-27.26-6.188-15.852-27.57-46.36-64.142-91.52-37.099 45.517-58.598 76.023-64.499 91.52-4.124 10.836-4.975 19.667-4.81 27.26z" fill="#cfdff6"/><path d="M331.44 270.528c35.87-.774 67.56-30.7 67.56-69.053 0-38.35-30.461-68.019-67.56-69.01-7.656-.204-16.616.455-27.26 4.611-15.853 6.188-46.36 27.57-91.52 64.142 45.517 37.099 76.024 58.598 91.52 64.499 10.836 4.124 19.667 4.975 27.26 4.81z" fill="#c72"/><path d="M68.561 270.528c-35.869-.774-67.56-30.7-67.56-69.053 0-38.35 30.462-68.019 67.56-69.01 7.657-.204 16.617.455 27.26 4.611 15.854 6.188 46.361 27.57 91.521 64.142-45.517 37.099-76.024 58.598-91.521 64.499-10.836 4.124-19.666 4.974-27.26 4.81z" fill="#0e78be"/></svg>
