<svg viewBox="0 0 2048 2048" xmlns="http://www.w3.org/2000/svg" fill-rule="evenodd" clip-rule="evenodd" stroke-linejoin="round" stroke-miterlimit="2"><path fill="none" d="M-.001.003h2047.999v2048h-2048z"/><path d="M1024.005 2044.002c205.019 0 371.228-167.727 371.228-374.635 0-137.934-123.743-338.492-371.228-601.68-247.486 263.188-371.228 463.746-371.228 601.68 0 206.908 166.203 374.635 371.228 374.635z" fill="#ffad00"/><path d="M1024.005 4.003c205.019 0 371.228 167.727 371.228 374.635 0 137.934-123.743 338.492-371.228 601.68-247.486-263.188-371.228-463.746-371.228-601.68 0-206.908 166.203-374.635 371.228-374.635z" fill="#00a3e0"/><path d="M13.309 1024.005c0 206.903 166.203 374.63 371.227 374.63 136.68 0 335.416-124.873 596.21-374.63-260.794-249.757-459.53-374.635-596.21-374.635-205.024 0-371.227 167.733-371.227 374.635z" fill="#00a74a"/><path d="M2034.695 1024c0-206.903-166.203-374.63-371.228-374.63-136.68 0-335.415 124.878-596.214 374.63 260.799 249.757 459.535 374.635 596.214 374.635 205.025 0 371.228-167.727 371.228-374.635z" fill="#e35205"/></svg>